<mxfile host="Electron" agent="Mozilla/5.0 (Windows NT 10.0; Win64; x64) AppleWebKit/537.36 (KHTML, like Gecko) draw.io/24.7.5 Chrome/126.0.6478.183 Electron/31.3.0 Safari/537.36" version="24.7.5">
  <diagram name="PÃ¡gina-1" id="9fZbQR2J_O9yXcZ-KlC4">
    <mxGraphModel dx="1354" dy="818" grid="1" gridSize="10" guides="1" tooltips="1" connect="1" arrows="1" fold="1" page="1" pageScale="1" pageWidth="827" pageHeight="1169" math="0" shadow="0">
      <root>
        <mxCell id="0" />
        <mxCell id="1" parent="0" />
        <mxCell id="BzOz2QjZ5CL9LcWKdzL1-46" style="edgeStyle=orthogonalEdgeStyle;rounded=0;orthogonalLoop=1;jettySize=auto;html=1;exitX=0.5;exitY=1;exitDx=0;exitDy=0;exitPerimeter=0;entryX=0.5;entryY=0;entryDx=0;entryDy=0;" edge="1" parent="1" source="BzOz2QjZ5CL9LcWKdzL1-1" target="BzOz2QjZ5CL9LcWKdzL1-2">
          <mxGeometry relative="1" as="geometry" />
        </mxCell>
        <mxCell id="BzOz2QjZ5CL9LcWKdzL1-1" value="INICIO" style="strokeWidth=2;html=1;shape=mxgraph.flowchart.start_1;whiteSpace=wrap;fillColor=#dae8fc;strokeColor=#6c8ebf;" vertex="1" parent="1">
          <mxGeometry x="65" y="60" width="80" height="30" as="geometry" />
        </mxCell>
        <mxCell id="BzOz2QjZ5CL9LcWKdzL1-12" style="edgeStyle=orthogonalEdgeStyle;rounded=0;orthogonalLoop=1;jettySize=auto;html=1;exitX=0.5;exitY=1;exitDx=0;exitDy=0;entryX=0.5;entryY=0;entryDx=0;entryDy=0;" edge="1" parent="1" source="BzOz2QjZ5CL9LcWKdzL1-2" target="BzOz2QjZ5CL9LcWKdzL1-3">
          <mxGeometry relative="1" as="geometry" />
        </mxCell>
        <mxCell id="BzOz2QjZ5CL9LcWKdzL1-2" value="BSF&amp;nbsp; &amp;nbsp;STATUS,5&amp;nbsp;&lt;div&gt;BCF&amp;nbsp; &amp;nbsp;STATUS,6&lt;br&gt;&lt;/div&gt;&lt;div&gt;CLRF&amp;nbsp; TRISB&lt;br&gt;&lt;/div&gt;&lt;div&gt;BSF&amp;nbsp; &amp;nbsp;TRISD,0&amp;nbsp;&lt;br&gt;&lt;/div&gt;&lt;div&gt;BCF&amp;nbsp; &amp;nbsp;STATUS,5&lt;br&gt;&lt;/div&gt;&lt;div&gt;CLRF&amp;nbsp; PORTB&lt;br&gt;&lt;/div&gt;&lt;div&gt;CLRF&amp;nbsp; PORTC&lt;br&gt;&lt;/div&gt;" style="rounded=1;whiteSpace=wrap;html=1;absoluteArcSize=1;arcSize=14;strokeWidth=2;fillColor=#f5f5f5;fontColor=#333333;strokeColor=#666666;" vertex="1" parent="1">
          <mxGeometry x="55" y="120" width="100" height="100" as="geometry" />
        </mxCell>
        <mxCell id="BzOz2QjZ5CL9LcWKdzL1-8" style="edgeStyle=orthogonalEdgeStyle;rounded=0;orthogonalLoop=1;jettySize=auto;html=1;exitX=0.5;exitY=1;exitDx=0;exitDy=0;entryX=0.5;entryY=0;entryDx=0;entryDy=0;" edge="1" parent="1" source="BzOz2QjZ5CL9LcWKdzL1-3" target="BzOz2QjZ5CL9LcWKdzL1-4">
          <mxGeometry relative="1" as="geometry" />
        </mxCell>
        <mxCell id="BzOz2QjZ5CL9LcWKdzL1-3" value="CALL VISUALIZAR" style="shape=process;whiteSpace=wrap;html=1;backgroundOutline=1;fillColor=#f8cecc;strokeColor=#b85450;" vertex="1" parent="1">
          <mxGeometry x="35" y="250" width="140" height="40" as="geometry" />
        </mxCell>
        <mxCell id="BzOz2QjZ5CL9LcWKdzL1-9" style="edgeStyle=orthogonalEdgeStyle;rounded=0;orthogonalLoop=1;jettySize=auto;html=1;exitX=0.5;exitY=1;exitDx=0;exitDy=0;entryX=0.5;entryY=0;entryDx=0;entryDy=0;" edge="1" parent="1" source="BzOz2QjZ5CL9LcWKdzL1-4" target="BzOz2QjZ5CL9LcWKdzL1-5">
          <mxGeometry relative="1" as="geometry" />
        </mxCell>
        <mxCell id="BzOz2QjZ5CL9LcWKdzL1-17" value="SI" style="edgeLabel;html=1;align=center;verticalAlign=middle;resizable=0;points=[];" vertex="1" connectable="0" parent="BzOz2QjZ5CL9LcWKdzL1-9">
          <mxGeometry x="-0.2667" relative="1" as="geometry">
            <mxPoint as="offset" />
          </mxGeometry>
        </mxCell>
        <mxCell id="BzOz2QjZ5CL9LcWKdzL1-13" style="edgeStyle=orthogonalEdgeStyle;rounded=0;orthogonalLoop=1;jettySize=auto;html=1;exitX=1;exitY=0.5;exitDx=0;exitDy=0;" edge="1" parent="1" source="BzOz2QjZ5CL9LcWKdzL1-4">
          <mxGeometry relative="1" as="geometry">
            <mxPoint x="105" y="230" as="targetPoint" />
            <Array as="points">
              <mxPoint x="215" y="350" />
              <mxPoint x="215" y="230" />
            </Array>
          </mxGeometry>
        </mxCell>
        <mxCell id="BzOz2QjZ5CL9LcWKdzL1-14" value="NO" style="edgeLabel;html=1;align=center;verticalAlign=middle;resizable=0;points=[];" vertex="1" connectable="0" parent="BzOz2QjZ5CL9LcWKdzL1-13">
          <mxGeometry x="-0.8456" y="-2" relative="1" as="geometry">
            <mxPoint as="offset" />
          </mxGeometry>
        </mxCell>
        <mxCell id="BzOz2QjZ5CL9LcWKdzL1-4" value="BTFSS PORTD,0" style="rhombus;whiteSpace=wrap;html=1;fillColor=#ffe6cc;strokeColor=#d79b00;" vertex="1" parent="1">
          <mxGeometry x="50" y="310" width="110" height="80" as="geometry" />
        </mxCell>
        <mxCell id="BzOz2QjZ5CL9LcWKdzL1-10" style="edgeStyle=orthogonalEdgeStyle;rounded=0;orthogonalLoop=1;jettySize=auto;html=1;exitX=0.5;exitY=1;exitDx=0;exitDy=0;" edge="1" parent="1" source="BzOz2QjZ5CL9LcWKdzL1-5" target="BzOz2QjZ5CL9LcWKdzL1-6">
          <mxGeometry relative="1" as="geometry" />
        </mxCell>
        <mxCell id="BzOz2QjZ5CL9LcWKdzL1-5" value="CALL RETARDO" style="shape=process;whiteSpace=wrap;html=1;backgroundOutline=1;fillColor=#e3c800;fontColor=#000000;strokeColor=#B09500;" vertex="1" parent="1">
          <mxGeometry x="42.5" y="420" width="125" height="40" as="geometry" />
        </mxCell>
        <mxCell id="BzOz2QjZ5CL9LcWKdzL1-11" style="edgeStyle=orthogonalEdgeStyle;rounded=0;orthogonalLoop=1;jettySize=auto;html=1;exitX=0.5;exitY=1;exitDx=0;exitDy=0;entryX=0.5;entryY=0;entryDx=0;entryDy=0;" edge="1" parent="1" source="BzOz2QjZ5CL9LcWKdzL1-6" target="BzOz2QjZ5CL9LcWKdzL1-7">
          <mxGeometry relative="1" as="geometry" />
        </mxCell>
        <mxCell id="BzOz2QjZ5CL9LcWKdzL1-18" value="SI" style="edgeLabel;html=1;align=center;verticalAlign=middle;resizable=0;points=[];" vertex="1" connectable="0" parent="BzOz2QjZ5CL9LcWKdzL1-11">
          <mxGeometry x="-0.25" y="2" relative="1" as="geometry">
            <mxPoint as="offset" />
          </mxGeometry>
        </mxCell>
        <mxCell id="BzOz2QjZ5CL9LcWKdzL1-15" style="edgeStyle=orthogonalEdgeStyle;rounded=0;orthogonalLoop=1;jettySize=auto;html=1;exitX=1;exitY=0.5;exitDx=0;exitDy=0;" edge="1" parent="1" source="BzOz2QjZ5CL9LcWKdzL1-6">
          <mxGeometry relative="1" as="geometry">
            <mxPoint x="215" y="350" as="targetPoint" />
          </mxGeometry>
        </mxCell>
        <mxCell id="BzOz2QjZ5CL9LcWKdzL1-16" value="NO" style="edgeLabel;html=1;align=center;verticalAlign=middle;resizable=0;points=[];" vertex="1" connectable="0" parent="BzOz2QjZ5CL9LcWKdzL1-15">
          <mxGeometry x="-0.7694" y="-1" relative="1" as="geometry">
            <mxPoint as="offset" />
          </mxGeometry>
        </mxCell>
        <mxCell id="BzOz2QjZ5CL9LcWKdzL1-6" value="BTFSS PORTD,0" style="rhombus;whiteSpace=wrap;html=1;fillColor=#ffe6cc;strokeColor=#d79b00;" vertex="1" parent="1">
          <mxGeometry x="50" y="480" width="110" height="80" as="geometry" />
        </mxCell>
        <mxCell id="BzOz2QjZ5CL9LcWKdzL1-19" style="edgeStyle=orthogonalEdgeStyle;rounded=0;orthogonalLoop=1;jettySize=auto;html=1;exitX=0.5;exitY=1;exitDx=0;exitDy=0;" edge="1" parent="1" source="BzOz2QjZ5CL9LcWKdzL1-7">
          <mxGeometry relative="1" as="geometry">
            <mxPoint x="215" y="520" as="targetPoint" />
            <Array as="points">
              <mxPoint x="105" y="680" />
              <mxPoint x="216" y="680" />
            </Array>
          </mxGeometry>
        </mxCell>
        <mxCell id="BzOz2QjZ5CL9LcWKdzL1-7" value="CALL INCREMENTAR" style="shape=process;whiteSpace=wrap;html=1;backgroundOutline=1;fillColor=#d5e8d4;strokeColor=#82b366;" vertex="1" parent="1">
          <mxGeometry x="20" y="600" width="170" height="50" as="geometry" />
        </mxCell>
        <mxCell id="BzOz2QjZ5CL9LcWKdzL1-25" style="edgeStyle=orthogonalEdgeStyle;rounded=0;orthogonalLoop=1;jettySize=auto;html=1;exitX=0.5;exitY=1;exitDx=0;exitDy=0;exitPerimeter=0;entryX=0.5;entryY=0;entryDx=0;entryDy=0;" edge="1" parent="1" source="BzOz2QjZ5CL9LcWKdzL1-20" target="BzOz2QjZ5CL9LcWKdzL1-21">
          <mxGeometry relative="1" as="geometry" />
        </mxCell>
        <mxCell id="BzOz2QjZ5CL9LcWKdzL1-20" value="VISUALIZAR" style="strokeWidth=2;html=1;shape=mxgraph.flowchart.start_1;whiteSpace=wrap;fillColor=#f8cecc;strokeColor=#b85450;" vertex="1" parent="1">
          <mxGeometry x="288" y="50" width="80" height="30" as="geometry" />
        </mxCell>
        <mxCell id="BzOz2QjZ5CL9LcWKdzL1-26" style="edgeStyle=orthogonalEdgeStyle;rounded=0;orthogonalLoop=1;jettySize=auto;html=1;exitX=0.5;exitY=1;exitDx=0;exitDy=0;entryX=0.5;entryY=0;entryDx=0;entryDy=0;" edge="1" parent="1" source="BzOz2QjZ5CL9LcWKdzL1-21" target="BzOz2QjZ5CL9LcWKdzL1-23">
          <mxGeometry relative="1" as="geometry" />
        </mxCell>
        <mxCell id="BzOz2QjZ5CL9LcWKdzL1-21" value="MOVF CONTADOR,W" style="rounded=1;whiteSpace=wrap;html=1;absoluteArcSize=1;arcSize=14;strokeWidth=2;fillColor=#1ba1e2;fontColor=#ffffff;strokeColor=#006EAF;" vertex="1" parent="1">
          <mxGeometry x="255" y="110" width="146" height="30" as="geometry" />
        </mxCell>
        <mxCell id="BzOz2QjZ5CL9LcWKdzL1-22" value="MOVWF PORTB" style="rounded=1;whiteSpace=wrap;html=1;absoluteArcSize=1;arcSize=14;strokeWidth=2;fillColor=#1ba1e2;fontColor=#ffffff;strokeColor=#006EAF;" vertex="1" parent="1">
          <mxGeometry x="255" y="220" width="146" height="30" as="geometry" />
        </mxCell>
        <mxCell id="BzOz2QjZ5CL9LcWKdzL1-27" style="edgeStyle=orthogonalEdgeStyle;rounded=0;orthogonalLoop=1;jettySize=auto;html=1;exitX=0.5;exitY=1;exitDx=0;exitDy=0;entryX=0.5;entryY=0;entryDx=0;entryDy=0;" edge="1" parent="1" source="BzOz2QjZ5CL9LcWKdzL1-23" target="BzOz2QjZ5CL9LcWKdzL1-22">
          <mxGeometry relative="1" as="geometry" />
        </mxCell>
        <mxCell id="BzOz2QjZ5CL9LcWKdzL1-23" value="CALL TABLA_DE_SEC" style="shape=process;whiteSpace=wrap;html=1;backgroundOutline=1;fillColor=#d80073;fontColor=#ffffff;strokeColor=#A50040;" vertex="1" parent="1">
          <mxGeometry x="240" y="160" width="176" height="30" as="geometry" />
        </mxCell>
        <mxCell id="BzOz2QjZ5CL9LcWKdzL1-24" value="RETURN" style="strokeWidth=2;html=1;shape=mxgraph.flowchart.start_1;whiteSpace=wrap;fillColor=#f8cecc;strokeColor=#b85450;" vertex="1" parent="1">
          <mxGeometry x="288" y="270" width="80" height="30" as="geometry" />
        </mxCell>
        <mxCell id="BzOz2QjZ5CL9LcWKdzL1-28" style="edgeStyle=orthogonalEdgeStyle;rounded=0;orthogonalLoop=1;jettySize=auto;html=1;exitX=0.5;exitY=1;exitDx=0;exitDy=0;entryX=0.5;entryY=0;entryDx=0;entryDy=0;entryPerimeter=0;" edge="1" parent="1" source="BzOz2QjZ5CL9LcWKdzL1-22" target="BzOz2QjZ5CL9LcWKdzL1-24">
          <mxGeometry relative="1" as="geometry" />
        </mxCell>
        <mxCell id="BzOz2QjZ5CL9LcWKdzL1-37" style="edgeStyle=orthogonalEdgeStyle;rounded=0;orthogonalLoop=1;jettySize=auto;html=1;exitX=0.5;exitY=1;exitDx=0;exitDy=0;exitPerimeter=0;entryX=0.5;entryY=0;entryDx=0;entryDy=0;" edge="1" parent="1" source="BzOz2QjZ5CL9LcWKdzL1-29" target="BzOz2QjZ5CL9LcWKdzL1-30">
          <mxGeometry relative="1" as="geometry" />
        </mxCell>
        <mxCell id="BzOz2QjZ5CL9LcWKdzL1-29" value="INCREMENTAR" style="strokeWidth=2;html=1;shape=mxgraph.flowchart.start_1;whiteSpace=wrap;fillColor=#d5e8d4;strokeColor=#82b366;" vertex="1" parent="1">
          <mxGeometry x="277" y="330" width="102" height="30" as="geometry" />
        </mxCell>
        <mxCell id="BzOz2QjZ5CL9LcWKdzL1-38" style="edgeStyle=orthogonalEdgeStyle;rounded=0;orthogonalLoop=1;jettySize=auto;html=1;exitX=0.5;exitY=1;exitDx=0;exitDy=0;entryX=0.5;entryY=0;entryDx=0;entryDy=0;" edge="1" parent="1" source="BzOz2QjZ5CL9LcWKdzL1-30" target="BzOz2QjZ5CL9LcWKdzL1-31">
          <mxGeometry relative="1" as="geometry" />
        </mxCell>
        <mxCell id="BzOz2QjZ5CL9LcWKdzL1-30" value="INCF CONTADOR,F" style="rounded=1;whiteSpace=wrap;html=1;absoluteArcSize=1;arcSize=14;strokeWidth=2;fillColor=#1ba1e2;fontColor=#ffffff;strokeColor=#006EAF;" vertex="1" parent="1">
          <mxGeometry x="255" y="390" width="146" height="30" as="geometry" />
        </mxCell>
        <mxCell id="BzOz2QjZ5CL9LcWKdzL1-39" style="edgeStyle=orthogonalEdgeStyle;rounded=0;orthogonalLoop=1;jettySize=auto;html=1;exitX=0.5;exitY=1;exitDx=0;exitDy=0;entryX=0.5;entryY=0;entryDx=0;entryDy=0;" edge="1" parent="1" source="BzOz2QjZ5CL9LcWKdzL1-31" target="BzOz2QjZ5CL9LcWKdzL1-32">
          <mxGeometry relative="1" as="geometry" />
        </mxCell>
        <mxCell id="BzOz2QjZ5CL9LcWKdzL1-31" value="MOVLW 5" style="rounded=1;whiteSpace=wrap;html=1;absoluteArcSize=1;arcSize=14;strokeWidth=2;fillColor=#1ba1e2;fontColor=#ffffff;strokeColor=#006EAF;" vertex="1" parent="1">
          <mxGeometry x="255" y="440" width="146" height="30" as="geometry" />
        </mxCell>
        <mxCell id="BzOz2QjZ5CL9LcWKdzL1-40" style="edgeStyle=orthogonalEdgeStyle;rounded=0;orthogonalLoop=1;jettySize=auto;html=1;exitX=0.5;exitY=1;exitDx=0;exitDy=0;entryX=0.5;entryY=0;entryDx=0;entryDy=0;" edge="1" parent="1" source="BzOz2QjZ5CL9LcWKdzL1-32" target="BzOz2QjZ5CL9LcWKdzL1-33">
          <mxGeometry relative="1" as="geometry" />
        </mxCell>
        <mxCell id="BzOz2QjZ5CL9LcWKdzL1-32" value="SUBWF CONTADOR,W" style="rounded=1;whiteSpace=wrap;html=1;absoluteArcSize=1;arcSize=14;strokeWidth=2;fillColor=#1ba1e2;fontColor=#ffffff;strokeColor=#006EAF;" vertex="1" parent="1">
          <mxGeometry x="255" y="490" width="146" height="30" as="geometry" />
        </mxCell>
        <mxCell id="BzOz2QjZ5CL9LcWKdzL1-41" style="edgeStyle=orthogonalEdgeStyle;rounded=0;orthogonalLoop=1;jettySize=auto;html=1;exitX=0.5;exitY=1;exitDx=0;exitDy=0;entryX=0.5;entryY=0;entryDx=0;entryDy=0;" edge="1" parent="1" source="BzOz2QjZ5CL9LcWKdzL1-33" target="BzOz2QjZ5CL9LcWKdzL1-35">
          <mxGeometry relative="1" as="geometry" />
        </mxCell>
        <mxCell id="BzOz2QjZ5CL9LcWKdzL1-45" value="SI" style="edgeLabel;html=1;align=center;verticalAlign=middle;resizable=0;points=[];" vertex="1" connectable="0" parent="BzOz2QjZ5CL9LcWKdzL1-41">
          <mxGeometry x="-0.1833" y="2" relative="1" as="geometry">
            <mxPoint as="offset" />
          </mxGeometry>
        </mxCell>
        <mxCell id="BzOz2QjZ5CL9LcWKdzL1-33" value="BTFSS STATUS,2" style="rhombus;whiteSpace=wrap;html=1;fillColor=#ffe6cc;strokeColor=#d79b00;" vertex="1" parent="1">
          <mxGeometry x="269.5" y="550" width="117" height="80" as="geometry" />
        </mxCell>
        <mxCell id="BzOz2QjZ5CL9LcWKdzL1-34" value="RETURN" style="strokeWidth=2;html=1;shape=mxgraph.flowchart.start_1;whiteSpace=wrap;fillColor=#d5e8d4;strokeColor=#82b366;" vertex="1" parent="1">
          <mxGeometry x="288" y="750" width="80" height="30" as="geometry" />
        </mxCell>
        <mxCell id="BzOz2QjZ5CL9LcWKdzL1-35" value="CLRF&amp;nbsp; CONTADOR" style="rounded=1;whiteSpace=wrap;html=1;absoluteArcSize=1;arcSize=14;strokeWidth=2;fillColor=#1ba1e2;fontColor=#ffffff;strokeColor=#006EAF;" vertex="1" parent="1">
          <mxGeometry x="255" y="670" width="146" height="30" as="geometry" />
        </mxCell>
        <mxCell id="BzOz2QjZ5CL9LcWKdzL1-36" value="RETURN" style="strokeWidth=2;html=1;shape=mxgraph.flowchart.start_1;whiteSpace=wrap;fillColor=#d5e8d4;strokeColor=#82b366;" vertex="1" parent="1">
          <mxGeometry x="410" y="620" width="80" height="30" as="geometry" />
        </mxCell>
        <mxCell id="BzOz2QjZ5CL9LcWKdzL1-42" style="edgeStyle=orthogonalEdgeStyle;rounded=0;orthogonalLoop=1;jettySize=auto;html=1;exitX=1;exitY=0.5;exitDx=0;exitDy=0;entryX=0.5;entryY=0;entryDx=0;entryDy=0;entryPerimeter=0;" edge="1" parent="1" source="BzOz2QjZ5CL9LcWKdzL1-33" target="BzOz2QjZ5CL9LcWKdzL1-36">
          <mxGeometry relative="1" as="geometry" />
        </mxCell>
        <mxCell id="BzOz2QjZ5CL9LcWKdzL1-44" value="NO" style="edgeLabel;html=1;align=center;verticalAlign=middle;resizable=0;points=[];" vertex="1" connectable="0" parent="BzOz2QjZ5CL9LcWKdzL1-42">
          <mxGeometry x="-0.3829" y="1" relative="1" as="geometry">
            <mxPoint as="offset" />
          </mxGeometry>
        </mxCell>
        <mxCell id="BzOz2QjZ5CL9LcWKdzL1-43" style="edgeStyle=orthogonalEdgeStyle;rounded=0;orthogonalLoop=1;jettySize=auto;html=1;exitX=0.5;exitY=1;exitDx=0;exitDy=0;entryX=0.5;entryY=0;entryDx=0;entryDy=0;entryPerimeter=0;" edge="1" parent="1" source="BzOz2QjZ5CL9LcWKdzL1-35" target="BzOz2QjZ5CL9LcWKdzL1-34">
          <mxGeometry relative="1" as="geometry" />
        </mxCell>
        <mxCell id="BzOz2QjZ5CL9LcWKdzL1-54" style="edgeStyle=orthogonalEdgeStyle;rounded=0;orthogonalLoop=1;jettySize=auto;html=1;exitX=0.5;exitY=1;exitDx=0;exitDy=0;exitPerimeter=0;entryX=0.5;entryY=0;entryDx=0;entryDy=0;" edge="1" parent="1" source="BzOz2QjZ5CL9LcWKdzL1-47" target="BzOz2QjZ5CL9LcWKdzL1-48">
          <mxGeometry relative="1" as="geometry" />
        </mxCell>
        <mxCell id="BzOz2QjZ5CL9LcWKdzL1-47" value="TABLA_DE_SEC" style="strokeWidth=2;html=1;shape=mxgraph.flowchart.start_1;whiteSpace=wrap;fillColor=#d80073;fontColor=#ffffff;strokeColor=#A50040;" vertex="1" parent="1">
          <mxGeometry x="478" y="60" width="110" height="30" as="geometry" />
        </mxCell>
        <mxCell id="BzOz2QjZ5CL9LcWKdzL1-55" style="edgeStyle=orthogonalEdgeStyle;rounded=0;orthogonalLoop=1;jettySize=auto;html=1;exitX=0.5;exitY=1;exitDx=0;exitDy=0;entryX=0.5;entryY=0;entryDx=0;entryDy=0;" edge="1" parent="1" source="BzOz2QjZ5CL9LcWKdzL1-48" target="BzOz2QjZ5CL9LcWKdzL1-49">
          <mxGeometry relative="1" as="geometry" />
        </mxCell>
        <mxCell id="BzOz2QjZ5CL9LcWKdzL1-48" value="ADDWF&amp;nbsp; PCL,F" style="rounded=1;whiteSpace=wrap;html=1;absoluteArcSize=1;arcSize=14;strokeWidth=2;fillColor=#1ba1e2;fontColor=#ffffff;strokeColor=#006EAF;" vertex="1" parent="1">
          <mxGeometry x="460" y="120" width="146" height="30" as="geometry" />
        </mxCell>
        <mxCell id="BzOz2QjZ5CL9LcWKdzL1-57" style="edgeStyle=orthogonalEdgeStyle;rounded=0;orthogonalLoop=1;jettySize=auto;html=1;exitX=1;exitY=0.5;exitDx=0;exitDy=0;" edge="1" parent="1" source="BzOz2QjZ5CL9LcWKdzL1-49" target="BzOz2QjZ5CL9LcWKdzL1-51">
          <mxGeometry relative="1" as="geometry" />
        </mxCell>
        <mxCell id="BzOz2QjZ5CL9LcWKdzL1-58" value="NO" style="edgeLabel;html=1;align=center;verticalAlign=middle;resizable=0;points=[];" vertex="1" connectable="0" parent="BzOz2QjZ5CL9LcWKdzL1-57">
          <mxGeometry x="-0.3554" y="-1" relative="1" as="geometry">
            <mxPoint as="offset" />
          </mxGeometry>
        </mxCell>
        <mxCell id="BzOz2QjZ5CL9LcWKdzL1-49" value="PCL=PCL+0" style="rhombus;whiteSpace=wrap;html=1;fillColor=#ffe6cc;strokeColor=#d79b00;" vertex="1" parent="1">
          <mxGeometry x="473" y="170" width="120" height="60" as="geometry" />
        </mxCell>
        <mxCell id="BzOz2QjZ5CL9LcWKdzL1-50" value="RETLW 11001100B&amp;nbsp;" style="strokeWidth=2;html=1;shape=mxgraph.flowchart.start_1;whiteSpace=wrap;fillColor=#d80073;strokeColor=#A50040;fontColor=#ffffff;" vertex="1" parent="1">
          <mxGeometry x="474.5" y="270" width="117" height="35" as="geometry" />
        </mxCell>
        <mxCell id="BzOz2QjZ5CL9LcWKdzL1-72" style="edgeStyle=orthogonalEdgeStyle;rounded=0;orthogonalLoop=1;jettySize=auto;html=1;exitX=1;exitY=0.5;exitDx=0;exitDy=0;entryX=0.5;entryY=0;entryDx=0;entryDy=0;" edge="1" parent="1" source="BzOz2QjZ5CL9LcWKdzL1-51" target="BzOz2QjZ5CL9LcWKdzL1-64">
          <mxGeometry relative="1" as="geometry" />
        </mxCell>
        <mxCell id="BzOz2QjZ5CL9LcWKdzL1-74" value="NO" style="edgeLabel;html=1;align=center;verticalAlign=middle;resizable=0;points=[];" vertex="1" connectable="0" parent="BzOz2QjZ5CL9LcWKdzL1-72">
          <mxGeometry x="-0.4297" y="3" relative="1" as="geometry">
            <mxPoint as="offset" />
          </mxGeometry>
        </mxCell>
        <mxCell id="BzOz2QjZ5CL9LcWKdzL1-51" value="PCL=PCL+1" style="rhombus;whiteSpace=wrap;html=1;fillColor=#ffe6cc;strokeColor=#d79b00;" vertex="1" parent="1">
          <mxGeometry x="630" y="240" width="120" height="60" as="geometry" />
        </mxCell>
        <mxCell id="BzOz2QjZ5CL9LcWKdzL1-53" value="RETLW 11100111B" style="strokeWidth=2;html=1;shape=mxgraph.flowchart.start_1;whiteSpace=wrap;fillColor=#d80073;strokeColor=#A50040;fontColor=#ffffff;" vertex="1" parent="1">
          <mxGeometry x="631.5" y="332.5" width="117" height="35" as="geometry" />
        </mxCell>
        <mxCell id="BzOz2QjZ5CL9LcWKdzL1-56" style="edgeStyle=orthogonalEdgeStyle;rounded=0;orthogonalLoop=1;jettySize=auto;html=1;exitX=0.5;exitY=1;exitDx=0;exitDy=0;entryX=0.5;entryY=0;entryDx=0;entryDy=0;entryPerimeter=0;" edge="1" parent="1" source="BzOz2QjZ5CL9LcWKdzL1-49" target="BzOz2QjZ5CL9LcWKdzL1-50">
          <mxGeometry relative="1" as="geometry" />
        </mxCell>
        <mxCell id="BzOz2QjZ5CL9LcWKdzL1-59" value="SI" style="edgeLabel;html=1;align=center;verticalAlign=middle;resizable=0;points=[];" vertex="1" connectable="0" parent="BzOz2QjZ5CL9LcWKdzL1-56">
          <mxGeometry x="-0.3918" y="-1" relative="1" as="geometry">
            <mxPoint y="-1" as="offset" />
          </mxGeometry>
        </mxCell>
        <mxCell id="BzOz2QjZ5CL9LcWKdzL1-60" style="edgeStyle=orthogonalEdgeStyle;rounded=0;orthogonalLoop=1;jettySize=auto;html=1;exitX=0.5;exitY=1;exitDx=0;exitDy=0;entryX=0.5;entryY=0;entryDx=0;entryDy=0;entryPerimeter=0;" edge="1" parent="1" source="BzOz2QjZ5CL9LcWKdzL1-51" target="BzOz2QjZ5CL9LcWKdzL1-53">
          <mxGeometry relative="1" as="geometry" />
        </mxCell>
        <mxCell id="BzOz2QjZ5CL9LcWKdzL1-61" value="SI" style="edgeLabel;html=1;align=center;verticalAlign=middle;resizable=0;points=[];" vertex="1" connectable="0" parent="BzOz2QjZ5CL9LcWKdzL1-60">
          <mxGeometry x="-0.0283" y="1" relative="1" as="geometry">
            <mxPoint as="offset" />
          </mxGeometry>
        </mxCell>
        <mxCell id="BzOz2QjZ5CL9LcWKdzL1-62" style="edgeStyle=orthogonalEdgeStyle;rounded=0;orthogonalLoop=1;jettySize=auto;html=1;exitX=1;exitY=0.5;exitDx=0;exitDy=0;" edge="1" parent="1" source="BzOz2QjZ5CL9LcWKdzL1-64" target="BzOz2QjZ5CL9LcWKdzL1-66">
          <mxGeometry relative="1" as="geometry" />
        </mxCell>
        <mxCell id="BzOz2QjZ5CL9LcWKdzL1-63" value="NO" style="edgeLabel;html=1;align=center;verticalAlign=middle;resizable=0;points=[];" vertex="1" connectable="0" parent="BzOz2QjZ5CL9LcWKdzL1-62">
          <mxGeometry x="-0.3554" y="-1" relative="1" as="geometry">
            <mxPoint as="offset" />
          </mxGeometry>
        </mxCell>
        <mxCell id="BzOz2QjZ5CL9LcWKdzL1-64" value="PCL=PCL+2" style="rhombus;whiteSpace=wrap;html=1;fillColor=#ffe6cc;strokeColor=#d79b00;" vertex="1" parent="1">
          <mxGeometry x="760" y="310" width="120" height="60" as="geometry" />
        </mxCell>
        <mxCell id="BzOz2QjZ5CL9LcWKdzL1-65" value="RETLW 10101010B" style="strokeWidth=2;html=1;shape=mxgraph.flowchart.start_1;whiteSpace=wrap;fillColor=#d80073;strokeColor=#A50040;fontColor=#ffffff;" vertex="1" parent="1">
          <mxGeometry x="761.5" y="410" width="117" height="35" as="geometry" />
        </mxCell>
        <mxCell id="BzOz2QjZ5CL9LcWKdzL1-79" style="edgeStyle=orthogonalEdgeStyle;rounded=0;orthogonalLoop=1;jettySize=auto;html=1;exitX=1;exitY=0.5;exitDx=0;exitDy=0;entryX=0.5;entryY=0;entryDx=0;entryDy=0;" edge="1" parent="1" source="BzOz2QjZ5CL9LcWKdzL1-66" target="BzOz2QjZ5CL9LcWKdzL1-75">
          <mxGeometry relative="1" as="geometry" />
        </mxCell>
        <mxCell id="BzOz2QjZ5CL9LcWKdzL1-80" value="NO" style="edgeLabel;html=1;align=center;verticalAlign=middle;resizable=0;points=[];" vertex="1" connectable="0" parent="BzOz2QjZ5CL9LcWKdzL1-79">
          <mxGeometry x="-0.2786" y="1" relative="1" as="geometry">
            <mxPoint as="offset" />
          </mxGeometry>
        </mxCell>
        <mxCell id="BzOz2QjZ5CL9LcWKdzL1-66" value="PCL=PCL+3" style="rhombus;whiteSpace=wrap;html=1;fillColor=#ffe6cc;strokeColor=#d79b00;" vertex="1" parent="1">
          <mxGeometry x="917" y="380" width="120" height="60" as="geometry" />
        </mxCell>
        <mxCell id="BzOz2QjZ5CL9LcWKdzL1-67" value="RETLW 10011001B" style="strokeWidth=2;html=1;shape=mxgraph.flowchart.start_1;whiteSpace=wrap;fillColor=#d80073;strokeColor=#A50040;fontColor=#ffffff;" vertex="1" parent="1">
          <mxGeometry x="918.5" y="472.5" width="117" height="35" as="geometry" />
        </mxCell>
        <mxCell id="BzOz2QjZ5CL9LcWKdzL1-68" style="edgeStyle=orthogonalEdgeStyle;rounded=0;orthogonalLoop=1;jettySize=auto;html=1;exitX=0.5;exitY=1;exitDx=0;exitDy=0;entryX=0.5;entryY=0;entryDx=0;entryDy=0;entryPerimeter=0;" edge="1" parent="1" source="BzOz2QjZ5CL9LcWKdzL1-64" target="BzOz2QjZ5CL9LcWKdzL1-65">
          <mxGeometry relative="1" as="geometry" />
        </mxCell>
        <mxCell id="BzOz2QjZ5CL9LcWKdzL1-69" value="SI" style="edgeLabel;html=1;align=center;verticalAlign=middle;resizable=0;points=[];" vertex="1" connectable="0" parent="BzOz2QjZ5CL9LcWKdzL1-68">
          <mxGeometry x="-0.3918" y="-1" relative="1" as="geometry">
            <mxPoint y="-1" as="offset" />
          </mxGeometry>
        </mxCell>
        <mxCell id="BzOz2QjZ5CL9LcWKdzL1-70" style="edgeStyle=orthogonalEdgeStyle;rounded=0;orthogonalLoop=1;jettySize=auto;html=1;exitX=0.5;exitY=1;exitDx=0;exitDy=0;entryX=0.5;entryY=0;entryDx=0;entryDy=0;entryPerimeter=0;" edge="1" parent="1" source="BzOz2QjZ5CL9LcWKdzL1-66" target="BzOz2QjZ5CL9LcWKdzL1-67">
          <mxGeometry relative="1" as="geometry" />
        </mxCell>
        <mxCell id="BzOz2QjZ5CL9LcWKdzL1-71" value="SI" style="edgeLabel;html=1;align=center;verticalAlign=middle;resizable=0;points=[];" vertex="1" connectable="0" parent="BzOz2QjZ5CL9LcWKdzL1-70">
          <mxGeometry x="-0.0283" y="1" relative="1" as="geometry">
            <mxPoint as="offset" />
          </mxGeometry>
        </mxCell>
        <mxCell id="BzOz2QjZ5CL9LcWKdzL1-75" value="PCL=PCL+4" style="rhombus;whiteSpace=wrap;html=1;fillColor=#ffe6cc;strokeColor=#d79b00;" vertex="1" parent="1">
          <mxGeometry x="1060" y="432.5" width="120" height="60" as="geometry" />
        </mxCell>
        <mxCell id="BzOz2QjZ5CL9LcWKdzL1-76" value="RETLW 10011001B" style="strokeWidth=2;html=1;shape=mxgraph.flowchart.start_1;whiteSpace=wrap;fillColor=#d80073;strokeColor=#A50040;fontColor=#ffffff;" vertex="1" parent="1">
          <mxGeometry x="1061.5" y="525" width="117" height="35" as="geometry" />
        </mxCell>
        <mxCell id="BzOz2QjZ5CL9LcWKdzL1-77" style="edgeStyle=orthogonalEdgeStyle;rounded=0;orthogonalLoop=1;jettySize=auto;html=1;exitX=0.5;exitY=1;exitDx=0;exitDy=0;entryX=0.5;entryY=0;entryDx=0;entryDy=0;entryPerimeter=0;" edge="1" parent="1" source="BzOz2QjZ5CL9LcWKdzL1-75" target="BzOz2QjZ5CL9LcWKdzL1-76">
          <mxGeometry relative="1" as="geometry" />
        </mxCell>
        <mxCell id="BzOz2QjZ5CL9LcWKdzL1-78" value="SI" style="edgeLabel;html=1;align=center;verticalAlign=middle;resizable=0;points=[];" vertex="1" connectable="0" parent="BzOz2QjZ5CL9LcWKdzL1-77">
          <mxGeometry x="-0.0283" y="1" relative="1" as="geometry">
            <mxPoint as="offset" />
          </mxGeometry>
        </mxCell>
        <mxCell id="BzOz2QjZ5CL9LcWKdzL1-142" style="edgeStyle=orthogonalEdgeStyle;rounded=0;orthogonalLoop=1;jettySize=auto;html=1;exitX=0.5;exitY=1;exitDx=0;exitDy=0;exitPerimeter=0;entryX=0.5;entryY=0;entryDx=0;entryDy=0;" edge="1" parent="1" source="BzOz2QjZ5CL9LcWKdzL1-112" target="BzOz2QjZ5CL9LcWKdzL1-118">
          <mxGeometry relative="1" as="geometry" />
        </mxCell>
        <mxCell id="BzOz2QjZ5CL9LcWKdzL1-112" value="RETARDO" style="strokeWidth=2;html=1;shape=mxgraph.flowchart.start_1;whiteSpace=wrap;fillColor=#e3c800;strokeColor=#B09500;fontColor=#000000;" vertex="1" parent="1">
          <mxGeometry x="555" y="410" width="100" height="50" as="geometry" />
        </mxCell>
        <mxCell id="BzOz2QjZ5CL9LcWKdzL1-117" style="edgeStyle=orthogonalEdgeStyle;rounded=0;orthogonalLoop=1;jettySize=auto;html=1;exitX=0.5;exitY=1;exitDx=0;exitDy=0;entryX=0.5;entryY=0;entryDx=0;entryDy=0;" edge="1" parent="1" source="BzOz2QjZ5CL9LcWKdzL1-118" target="BzOz2QjZ5CL9LcWKdzL1-120">
          <mxGeometry relative="1" as="geometry" />
        </mxCell>
        <mxCell id="BzOz2QjZ5CL9LcWKdzL1-118" value="MOVLW&amp;nbsp; 176" style="rounded=1;whiteSpace=wrap;html=1;absoluteArcSize=1;arcSize=14;strokeWidth=2;fillColor=#dae8fc;strokeColor=#6c8ebf;" vertex="1" parent="1">
          <mxGeometry x="555" y="490" width="100" height="40" as="geometry" />
        </mxCell>
        <mxCell id="BzOz2QjZ5CL9LcWKdzL1-119" style="edgeStyle=orthogonalEdgeStyle;rounded=0;orthogonalLoop=1;jettySize=auto;html=1;exitX=0.5;exitY=1;exitDx=0;exitDy=0;entryX=0.5;entryY=0;entryDx=0;entryDy=0;" edge="1" parent="1" source="BzOz2QjZ5CL9LcWKdzL1-120" target="BzOz2QjZ5CL9LcWKdzL1-122">
          <mxGeometry relative="1" as="geometry" />
        </mxCell>
        <mxCell id="BzOz2QjZ5CL9LcWKdzL1-120" value="MOVWF&amp;nbsp; CONT2" style="rounded=1;whiteSpace=wrap;html=1;absoluteArcSize=1;arcSize=14;strokeWidth=2;fillColor=#dae8fc;strokeColor=#6c8ebf;" vertex="1" parent="1">
          <mxGeometry x="555" y="550" width="100" height="40" as="geometry" />
        </mxCell>
        <mxCell id="BzOz2QjZ5CL9LcWKdzL1-121" style="edgeStyle=orthogonalEdgeStyle;rounded=0;orthogonalLoop=1;jettySize=auto;html=1;exitX=0.5;exitY=1;exitDx=0;exitDy=0;entryX=0.5;entryY=0;entryDx=0;entryDy=0;" edge="1" parent="1" source="BzOz2QjZ5CL9LcWKdzL1-122" target="BzOz2QjZ5CL9LcWKdzL1-123">
          <mxGeometry relative="1" as="geometry" />
        </mxCell>
        <mxCell id="BzOz2QjZ5CL9LcWKdzL1-122" value="MOVLW&amp;nbsp; 150" style="rounded=1;whiteSpace=wrap;html=1;absoluteArcSize=1;arcSize=14;strokeWidth=2;fillColor=#f5f5f5;fontColor=#333333;strokeColor=#666666;" vertex="1" parent="1">
          <mxGeometry x="555" y="620" width="100" height="40" as="geometry" />
        </mxCell>
        <mxCell id="BzOz2QjZ5CL9LcWKdzL1-123" value="MOVWF&amp;nbsp; CONT1" style="rounded=1;whiteSpace=wrap;html=1;absoluteArcSize=1;arcSize=14;strokeWidth=2;fillColor=#f5f5f5;fontColor=#333333;strokeColor=#666666;" vertex="1" parent="1">
          <mxGeometry x="555" y="680" width="100" height="40" as="geometry" />
        </mxCell>
        <mxCell id="BzOz2QjZ5CL9LcWKdzL1-124" style="edgeStyle=orthogonalEdgeStyle;rounded=0;orthogonalLoop=1;jettySize=auto;html=1;exitX=1;exitY=0.5;exitDx=0;exitDy=0;exitPerimeter=0;" edge="1" parent="1" source="BzOz2QjZ5CL9LcWKdzL1-126">
          <mxGeometry relative="1" as="geometry">
            <mxPoint x="605" y="740" as="targetPoint" />
            <Array as="points">
              <mxPoint x="705" y="793" />
              <mxPoint x="705" y="740" />
            </Array>
          </mxGeometry>
        </mxCell>
        <mxCell id="BzOz2QjZ5CL9LcWKdzL1-125" value="NO" style="edgeLabel;html=1;align=center;verticalAlign=middle;resizable=0;points=[];" vertex="1" connectable="0" parent="BzOz2QjZ5CL9LcWKdzL1-124">
          <mxGeometry x="-0.7973" y="1" relative="1" as="geometry">
            <mxPoint y="1" as="offset" />
          </mxGeometry>
        </mxCell>
        <mxCell id="BzOz2QjZ5CL9LcWKdzL1-126" value="DECFSZ CONT1,F" style="strokeWidth=2;html=1;shape=mxgraph.flowchart.decision;whiteSpace=wrap;fillColor=#fff2cc;strokeColor=#d6b656;" vertex="1" parent="1">
          <mxGeometry x="540" y="755" width="130" height="75" as="geometry" />
        </mxCell>
        <mxCell id="BzOz2QjZ5CL9LcWKdzL1-127" style="edgeStyle=orthogonalEdgeStyle;rounded=0;orthogonalLoop=1;jettySize=auto;html=1;exitX=0.5;exitY=1;exitDx=0;exitDy=0;entryX=0.5;entryY=0;entryDx=0;entryDy=0;entryPerimeter=0;" edge="1" parent="1" source="BzOz2QjZ5CL9LcWKdzL1-123" target="BzOz2QjZ5CL9LcWKdzL1-126">
          <mxGeometry relative="1" as="geometry" />
        </mxCell>
        <mxCell id="BzOz2QjZ5CL9LcWKdzL1-128" style="edgeStyle=orthogonalEdgeStyle;rounded=0;orthogonalLoop=1;jettySize=auto;html=1;exitX=1;exitY=0.5;exitDx=0;exitDy=0;exitPerimeter=0;" edge="1" parent="1" source="BzOz2QjZ5CL9LcWKdzL1-130">
          <mxGeometry relative="1" as="geometry">
            <mxPoint x="605" y="600" as="targetPoint" />
            <Array as="points">
              <mxPoint x="735" y="898" />
              <mxPoint x="735" y="600" />
            </Array>
          </mxGeometry>
        </mxCell>
        <mxCell id="BzOz2QjZ5CL9LcWKdzL1-129" value="NO" style="edgeLabel;html=1;align=center;verticalAlign=middle;resizable=0;points=[];" vertex="1" connectable="0" parent="BzOz2QjZ5CL9LcWKdzL1-128">
          <mxGeometry x="-0.9025" y="1" relative="1" as="geometry">
            <mxPoint y="1" as="offset" />
          </mxGeometry>
        </mxCell>
        <mxCell id="BzOz2QjZ5CL9LcWKdzL1-130" value="DECFSZ CONT2,F" style="strokeWidth=2;html=1;shape=mxgraph.flowchart.decision;whiteSpace=wrap;fillColor=#fff2cc;strokeColor=#d6b656;" vertex="1" parent="1">
          <mxGeometry x="540" y="860" width="130" height="75" as="geometry" />
        </mxCell>
        <mxCell id="BzOz2QjZ5CL9LcWKdzL1-131" style="edgeStyle=orthogonalEdgeStyle;rounded=0;orthogonalLoop=1;jettySize=auto;html=1;exitX=0.5;exitY=1;exitDx=0;exitDy=0;exitPerimeter=0;entryX=0.5;entryY=0;entryDx=0;entryDy=0;entryPerimeter=0;" edge="1" parent="1" source="BzOz2QjZ5CL9LcWKdzL1-126" target="BzOz2QjZ5CL9LcWKdzL1-130">
          <mxGeometry relative="1" as="geometry" />
        </mxCell>
        <mxCell id="BzOz2QjZ5CL9LcWKdzL1-132" value="SI" style="edgeLabel;html=1;align=center;verticalAlign=middle;resizable=0;points=[];" vertex="1" connectable="0" parent="BzOz2QjZ5CL9LcWKdzL1-131">
          <mxGeometry x="-0.4" y="-1" relative="1" as="geometry">
            <mxPoint as="offset" />
          </mxGeometry>
        </mxCell>
        <mxCell id="BzOz2QjZ5CL9LcWKdzL1-138" value="RETURN" style="strokeWidth=2;html=1;shape=mxgraph.flowchart.start_1;whiteSpace=wrap;fillColor=#e3c800;strokeColor=#B09500;fontColor=#000000;" vertex="1" parent="1">
          <mxGeometry x="555" y="970" width="100" height="50" as="geometry" />
        </mxCell>
        <mxCell id="BzOz2QjZ5CL9LcWKdzL1-141" style="edgeStyle=orthogonalEdgeStyle;rounded=0;orthogonalLoop=1;jettySize=auto;html=1;exitX=0.5;exitY=1;exitDx=0;exitDy=0;exitPerimeter=0;entryX=0.5;entryY=0;entryDx=0;entryDy=0;entryPerimeter=0;" edge="1" parent="1" source="BzOz2QjZ5CL9LcWKdzL1-130" target="BzOz2QjZ5CL9LcWKdzL1-138">
          <mxGeometry relative="1" as="geometry" />
        </mxCell>
      </root>
    </mxGraphModel>
  </diagram>
</mxfile>
